<svg xmlns="http://www.w3.org/2000/svg" version="1.1" xmlns:xlink="http://www.w3.org/1999/xlink" xmlns:svgjs="http://svgjs.dev/svgjs" width="1000" height="1125" viewBox="0 0 1000 1125"><g transform="matrix(1,0,0,1,0.00007343750002064553,0)"><svg viewBox="0 0 320 360" data-background-color="#d9bca9" preserveAspectRatio="xMidYMid meet" height="1125" width="1000" xmlns="http://www.w3.org/2000/svg" xmlns:xlink="http://www.w3.org/1999/xlink"><g id="tight-bounds" transform="matrix(1,0,0,1,0.000023499999997511622,0)"><svg viewBox="0 0 320 360" height="360" width="320"><g><svg></svg></g><g><svg viewBox="0 0 320 360" height="360" width="320"><g><path transform="translate(-74.99272,-51.79039) scale(4.65793,4.65793)" d="M20.6 59.9l0.8 1-0.4-1.3c-0.1-0.6-0.8 0.1-0.4 0.3M21.5 59.3c0.3 0.5 0.6 1 0.6 1.5 0 0.7 0.6 1 1.1 1.2-0.7-0.8-1.1-3-1.7-2.7M59.9 16.9c1.7 0 3.3-0.2 5.1 0.2 4.4 1.1 8.1 3.3 10.6 6.4l7 11.2c0.3 2.8 0.9 5.9 0.8 9.3 0.7 0 0.6-1 1.4-1.2-0.8 2-1.2 4.5-1.4 7.4-0.5-1.6 0-4 0.1-5.3-0.7 1.1-1.1 0.3-1.1-0.2 0.1-0.8-0.3-0.7-0.6-1-1.1-1-1.8-2.1-2.6-3.8 0.5-1.3 0.6-3.2-1-4.2-0.5-0.3-1.1-0.8-1.4-1.6-0.4-1.1-1.1-2.4-0.9-4.1 0.1-0.5-1.5 1.1-2.4 0.4-3.9-2.7-7.8-5.8-12.5-8.4-2.5 0-4.3-0.9-5.2-2-0.8-1-0.2-2.3 1-2.4 0.7 0 1.5-0.2 2.1 0.2 0.1-0.4 0.5-0.9 1-0.9M50 14.6l0.2 0.1c1 0.2 1.5 1.6 2.6 1.1 0 0.7 0.1 1.4-0.1 1.9-0.3 0.8-1.2 0.8-1.9 0.8-6.7-0.4-10.6 2.4-14.7 4.8-1.1 0.7-2.3 1.2-3.2 2.1-4.3 4-9 7.7-10.1 15.1l-0.9 8.2c-0.1 0.9-1.1 1.8-0.9 2.9l0.7 4.9c-0.7-0.7-1.1 0.2-0.9 0.6 0.1 0.3 0.5 1.3 1.1 0.4 0.8 1.5 1.6 4.4 2.7 5.7 3.4 4 7.8 7.6 11.4 11.2 0.9-0.2 1.6-0.2 1.8-0.8 0.3 0.6-0.3 1.2-0.8 1.3 1.6 1 3.4 1.9 5.8 2.1 3.1 0.2 6 0.7 8.7 1.4 1.4-0.4 2.8-0.6 4.3-0.7 0.5 0 0.8-0.8 1.4-1l0.1-1c0.6 0.9 0.5-0.3 0.1-0.9 0.7 0.6 0.9 1.1 1.2 1.5 0-0.3 0.8-1.4 0.8-0.1l0.2-1.3c0.3-0.2 0.4 1.1 0.7 0.2 0.3-0.9 0.9-0.2 1.5-0.5-0.2 0.4-0.1 1.2 0.6 0.7l0.8-0.7c0.5 1.2 1.3 0.7 1.7 0.5 4.4-2.8 8.8-6.1 13-9.4l-0.1 1.3 0.5-1.6c0.5 0.5 0.9 0.1 1.1-0.2 0.6-1 1.4-2 2.7-2.9-1.6 4.3-3.5 7.7-5.9 10.5l-1 1.2c0 0.7-0.2 1.6-1 1.7-0.4 0.1-1.2-0.2-1.8 0.4-0.3 0.4 0.7 1.2-0.1 0.6-0.7-0.5-1.4 0-2.2 0.2-0.6 0.2 0.4 0.8 0.6 1.2 0.2 0.4 0.4 0.8 0.3 1.3l-1.1-1.2c-1.3 0.7-2.1 2-3.2 3-0.5 0.4-0.3 1.1-0.3 1.7-0.7 0-1.5-0.2-1.9 0.2-0.3 0.4-0.2 1-0.2 1.6-1-0.1-1.1-1.6-2-1.3-0.9 0.2-1.9 0.3-2.7 0.8 0.6 1.2-1 0.5-0.8 0.7-1.5-0.9-2.8-1.6-4.4-1-3.4-1.1-7.6-0.6-10.7-0.2 0-0.5 0.1-1-0.1-1.1-0.2 0.5-0.8 0.3-0.7 0.3-1.9-1.3-3.8-2.1-5.8-3.2-1.8 0.2-3.5-0.7-4-1.2-1.4-1.3-3-0.6-4.3-0.9-2.8-0.7-3.8-3.6-4.1-5.6-0.2-1-1-1.4-1.3-1.3-1.3-4.2-3.3-8-4.9-11.9-0.4-1-0.3-2-0.3-3.1 0.5 0.2 1 0.1 0.9-0.6-0.5-3.3-1.7-5.8-3-8.2 0.7-3.4 0.8-7.4 2.4-10.4 1.4-2.7 4-4.1 5.8-6.4 0.6-0.8 0.6-1.9 1.2-2.6 2-2 4-4.1 6.2-5.9 1-0.8 2.2 0 3.7-0.3 0.5-1.8 2.5-3.4 4.4-2.9 0.8 0.2 2.4-1.9 2.9-2.1 0.8-0.3 0.4 0.8 0.4 1.5 1.9-1.5 4.5-2.3 6.9-3.2" fill="#000000" fill-rule="nonzero" stroke="none" stroke-width="1" stroke-linecap="butt" stroke-linejoin="miter" stroke-miterlimit="10" stroke-dasharray="" stroke-dashoffset="0" font-family="none" font-weight="none" font-size="none" text-anchor="none" style="mix-blend-mode: normal" data-fill-palette-color="tertiary"></path></g><g transform="matrix(1,0,0,1,64,107.25837021536208)"><svg viewBox="0 0 192 145.48325956927584" height="145.48325956927584" width="192"><g><svg viewBox="0 0 192 145.48325956927584" height="145.48325956927584" width="192"><g><svg viewBox="0 0 192 145.48325956927584" height="145.48325956927584" width="192"><g transform="matrix(1,0,0,1,0,86.66534401977589)"><svg viewBox="0 0 192 58.81791554949994" height="58.81791554949994" width="192"><g><svg viewBox="0 0 192 58.81791554949994" height="58.81791554949994" width="192"><g><svg viewBox="0 0 192 36.86154937067896" height="36.86154937067896" width="192"><g transform="matrix(1,0,0,1,0,0)"><svg width="192" viewBox="0 -38.43 275.41 52.879999999999995" height="36.86154937067896" data-palette-color="#000000"><path d="M0.49-32.76L0.49-32.76 0-34.96 18.65-36.04Q19.87-35.99 20.7-35.16 21.53-34.33 21.53-33.35L21.53-33.35Q21.53-32.71 21.04-32.23 20.56-31.74 19.58-31.64L19.58-31.64 11.38-32.08Q12.6-14.84 13.18-0.73L13.18-0.73Q12.74 0.73 11.52 0.73L11.52 0.73Q10.64 0.73 9.81 0.02 8.98-0.68 8.79-1.71L8.79-1.71Q8.89-4.35 8.89-9.72L8.89-9.72Q8.89-11.72 8.86-15.72 8.84-19.73 8.84-21.73L8.84-21.73Q8.84-27.54 9.03-32.23L9.03-32.23Q3.52-32.62 0.49-32.76ZM24.61-25.1L24.61-25.1 26.85-24.61Q27.24-20.61 27.54-12.04 27.83-3.47 27.93-1.42L27.93-1.42Q27.49 0.1 26.22 0.1L26.22 0.1Q25.34 0.1 24.53-0.61 23.73-1.32 23.53-2.34L23.53-2.34Q23.63-4.35 23.92-12.77 24.22-21.19 24.61-25.1ZM25.29-33.84L25.29-33.84Q26.61-33.84 27.49-32.69 28.37-31.54 28.37-30.08L28.37-30.08Q28.37-29 27.85-28.34 27.34-27.69 26.46-27.69L26.46-27.69Q25.1-27.69 24.31-28.81 23.53-29.93 23.53-31.45L23.53-31.45Q23.53-32.52 24-33.18 24.46-33.84 25.29-33.84ZM35.69-19.53L35.69-19.53 35.88-0.2Q35.15 0.2 34.13 0.2L34.13 0.2Q33.34 0.2 32.37-0.05L32.37-0.05Q32.51-3.13 32.56-12.16 32.61-21.19 32.95-25.54L32.95-25.54 35.15-25.05 35.3-22.31Q37.89-25.05 41.25-25.05L41.25-25.05Q42.96-25.05 43.99-24.8 45.01-24.56 45.97-23.61 46.92-22.66 47.41-21.09 47.9-19.53 48.29-16.63 48.68-13.72 48.85-9.84 49.02-5.96 49.07-0.05L49.07-0.05Q48.77 0.05 47.94 0.05L47.94 0.05Q46.19 0.05 45.21-0.39L45.21-0.39Q45.01-1.17 45.01-2.98L45.01-2.98Q45.01-3.91 45.09-6.47 45.16-9.03 45.16-10.45L45.16-10.45Q45.16-12.79 44.99-14.55 44.82-16.31 44.36-18.02 43.89-19.73 42.94-20.65 41.99-21.58 40.57-21.58L40.57-21.58Q38.96-21.58 38.06-21.34 37.15-21.09 36.79-20.75 36.42-20.41 35.69-19.53ZM56.54 14.45L56.54 14.45 53.51 12.74Q55.51 9.28 60.59-0.44L60.59-0.44Q56.63-3.96 54.53-11.08 52.43-18.21 51.99-25.34L51.99-25.34 54.83-25.2Q55.07-24.02 55.88-19.85 56.68-15.67 57.17-13.67 57.66-11.67 58.9-8.67 60.15-5.66 61.76-3.61L61.76-3.61Q68.55-16.65 68.55-25L68.55-25 68.55-25.54Q71.09-25.15 72.36-24.61L72.36-24.61Q71.57-19.48 69.91-14.16 68.25-8.84 65.76-3.44 63.27 1.95 61.35 5.62 59.42 9.28 56.54 14.45ZM108.78 0.34L108.78 0.34 104.48 0.34Q102.87-1.17 101.06-3.13 99.26-5.08 98.11-6.45 96.96-7.81 94.93-10.33 92.91-12.84 92.08-13.87L92.08-13.87 92.71-0.68Q92.27 0.78 91 0.78L91 0.78Q90.12 0.78 89.32 0.07 88.51-0.63 88.32-1.66L88.32-1.66Q88.46-5.57 88.56-17.87 88.66-30.18 89-36.04L89-36.04 91.2-35.55Q91.34-33.11 91.54-27.08 91.74-21.04 91.83-19.04L91.83-19.04Q92.66-20.07 94.93-22.83 97.2-25.59 98.06-26.59 98.91-27.59 100.55-29.49 102.18-31.4 103.55-32.81 104.92-34.23 106.48-35.69L106.48-35.69 107.95-33.3Q106.19-30.37 94.32-16.7L94.32-16.7Q96.03-14.89 101.38-8.3 106.73-1.71 108.78 0.34ZM114.05-19.53L114.05-19.53 114.24-0.2Q113.51 0.2 112.49 0.2L112.49 0.2Q111.7 0.2 110.73-0.05L110.73-0.05Q110.87-3.13 110.92-12.16 110.97-21.19 111.31-25.54L111.31-25.54 113.51-25.05 113.66-22.31Q116.24-25.05 119.61-25.05L119.61-25.05Q121.32-25.05 122.35-24.8 123.37-24.56 124.33-23.61 125.28-22.66 125.77-21.09 126.25-19.53 126.65-16.63 127.04-13.72 127.21-9.84 127.38-5.96 127.43-0.05L127.43-0.05Q127.13 0.05 126.3 0.05L126.3 0.05Q124.55 0.05 123.57-0.39L123.57-0.39Q123.37-1.17 123.37-2.98L123.37-2.98Q123.37-3.91 123.45-6.47 123.52-9.03 123.52-10.45L123.52-10.45Q123.52-12.79 123.35-14.55 123.18-16.31 122.71-18.02 122.25-19.73 121.3-20.65 120.35-21.58 118.93-21.58L118.93-21.58Q117.32-21.58 116.42-21.34 115.51-21.09 115.15-20.75 114.78-20.41 114.05-19.53ZM131.38-10.4L131.38-10.4Q131.38-12.35 131.79-14.75 132.21-17.14 133.04-19.78 133.87-22.41 135.53-24.17 137.19-25.93 139.39-25.93L139.39-25.93Q144.07-25.93 146.91-21.7 149.74-17.48 149.74-12.3L149.74-12.3Q149.74-10.11 149.27-7.93 148.81-5.76 147.83-3.66 146.86-1.56 145.03-0.17 143.2 1.22 140.75 1.42L140.75 1.42Q136.26 0.83 133.82-2.42 131.38-5.66 131.38-10.4ZM139.68-23.39L139.68-23.39Q137.97-23.19 136.8-20.26 135.63-17.33 135.29-14.58 134.94-11.82 134.94-9.72L134.94-9.72Q134.94-6.98 136.63-4.66 138.31-2.34 140.41-2.34L140.41-2.34Q141.93-2.34 143.15-3.52 144.37-4.69 145.08-6.42 145.78-8.15 146.15-9.91 146.52-11.67 146.52-13.04L146.52-13.04Q146.52-17.04 144.71-20.02 142.9-23 139.68-23.39ZM175.81-25.29L175.81-25.29 179.08-24.85Q178.15-21 176.15-13.11 174.15-5.22 173.03-0.29L173.03-0.29Q171.12 0.05 169.76 0.05L169.76 0.05Q168.53 0.05 167.51-0.15L167.51-0.15 164.77-9.72 162.43-0.1Q160.53 0.24 159.11 0.24L159.11 0.24Q157.94 0.24 156.91 0.05L156.91 0.05Q156.18-2.49 154.59-7.98 153.01-13.48 151.91-17.53 150.81-21.58 149.93-25.29L149.93-25.29 153.15-25.05 159.5-4.74Q161.11-9.42 162.87-16.31L162.87-16.31Q161.36-21.92 160.53-25.49L160.53-25.49 163.75-25.24 170.1-4.93Q170.88-7.28 171.76-10.21 172.64-13.13 173.17-15.21 173.71-17.29 174.59-20.63 175.47-23.97 175.81-25.29ZM181.03-2.34L182.11-33.5 184.35-33.01 185.43-1.42Q184.99 0.1 183.72 0.1L183.72 0.1Q182.84 0.1 182.03-0.61 181.23-1.32 181.03-2.34L181.03-2.34ZM209.11-4.74L209.11-4.74 209.59-2.59Q207.45-1.81 203.22-0.85 199 0.1 196.95 0.1L196.95 0.1Q194.85 0.1 193.29-1.29 191.72-2.69 190.94-4.86 190.16-7.03 189.79-9.16 189.43-11.28 189.43-13.33L189.43-13.33Q189.43-25.54 200.46-25.54L200.46-25.54Q203.1-25.54 205.1-23.85 207.1-22.17 207.1-19.48L207.1-19.48Q207.1-18.02 206.3-16.89 205.49-15.77 204.35-15.11 203.2-14.45 201.42-13.92 199.63-13.38 198.27-13.13 196.9-12.89 194.99-12.6 193.09-12.3 192.36-12.16L192.36-12.16Q192.41-10.74 192.53-9.67 192.65-8.59 193.02-7.35 193.38-6.1 193.99-5.3 194.6-4.49 195.68-3.96 196.75-3.42 198.22-3.42L198.22-3.42Q199.98-3.42 202.51-3.74 205.05-4.05 207.03-4.39 209.01-4.74 209.11-4.74ZM192.55-15.19L192.55-15.19Q199.19-17.09 203.44-19.19L203.44-19.19Q203.1-20.8 202.51-21.53 201.93-22.27 200.76-22.27L200.76-22.27Q197.78-22.27 195.36-20.21 192.94-18.16 192.55-15.19ZM229.76-37.3L229.12 1.27 226.44 0.73Q226.44-0.24 226.39-0.73L226.39-0.73Q223.8 0.93 220.92 0.93L220.92 0.93Q216.48 0.93 214.01-2.88 211.54-6.69 211.54-11.52L211.54-11.52Q211.54-14.01 211.91-16.21 212.28-18.41 213.18-20.73 214.08-23.05 216.01-24.41 217.94-25.78 220.68-25.78L220.68-25.78Q223.36-25.78 225.7-24.46L225.7-24.46Q226.1-29.64 226.1-34.91L226.1-34.91Q226.1-37.3 226.05-38.43L226.05-38.43Q228.39-37.99 229.76-37.3L229.76-37.3ZM226-3.96L226-3.96 225.85-19.68Q225.27-20.9 224.02-21.61 222.78-22.31 221.36-22.31L221.36-22.31Q219.45-22.31 218.11-21.09 216.77-19.87 216.21-17.85 215.65-15.82 215.43-14.06 215.21-12.3 215.21-10.35L215.21-10.35Q215.21-2.05 220.77-2.05L220.77-2.05Q222.63-2.05 224.17-2.56 225.7-3.08 226-3.96ZM248.6-25.2L248.6-25.2 250.8-25.68Q250.8-24.22 250.85-23.39L250.85-23.39Q251.14-12.7 251.14-9.47L251.14-9.47Q251.14-8.35 251.19-5.96 251.24-3.56 251.24-2.34L251.24-2.34Q251.24 0.34 251.07 2.29 250.9 4.25 250.31 6.37 249.73 8.5 248.72 9.84 247.72 11.18 245.89 12.06 244.06 12.94 241.57 12.94L241.57 12.94Q239.42 12.94 234 12.3L234 12.3Q233.95 11.77 233.83 11.13 233.71 10.5 233.71 10.16L233.71 10.16Q233.71 9.42 233.86 8.98L233.86 8.98Q234.25 9.03 236.91 9.38 239.57 9.72 240.84 9.72L240.84 9.72Q244.21 9.72 246.01 7.67 247.82 5.62 247.87 0L247.87 0Q245.48 1.37 242.84 1.37L242.84 1.37Q240.64 1.37 238.98 0.46 237.32-0.44 236.35-1.83 235.37-3.22 234.76-5.2 234.15-7.18 233.93-9.03 233.71-10.89 233.71-12.99L233.71-12.99Q233.71-18.26 236.03-21.83 238.35-25.39 243.09-25.39L243.09-25.39Q245.87-25.39 248.55-23.68L248.55-23.68Q248.6-24.17 248.6-25.2ZM248.02-4.74L248.02-4.74 248.16-20.51Q247.87-21.39 246.33-21.9 244.79-22.41 242.94-22.41L242.94-22.41Q240.3-22.41 238.84-20 237.37-17.58 237.37-14.11L237.37-14.11Q237.37-12.3 237.57-10.57 237.76-8.84 238.35-6.76 238.93-4.69 240.25-3.42 241.57-2.15 243.52-2.15L243.52-2.15Q244.99-2.15 246.21-2.86 247.43-3.56 248.02-4.74ZM274.92-4.74L274.92-4.74 275.41-2.59Q273.26-1.81 269.03-0.85 264.81 0.1 262.76 0.1L262.76 0.1Q260.66 0.1 259.1-1.29 257.54-2.69 256.75-4.86 255.97-7.03 255.61-9.16 255.24-11.28 255.24-13.33L255.24-13.33Q255.24-25.54 266.28-25.54L266.28-25.54Q268.91-25.54 270.91-23.85 272.92-22.17 272.92-19.48L272.92-19.48Q272.92-18.02 272.11-16.89 271.31-15.77 270.16-15.11 269.01-14.45 267.23-13.92 265.45-13.38 264.08-13.13 262.71-12.89 260.81-12.6 258.9-12.3 258.17-12.16L258.17-12.16Q258.22-10.74 258.34-9.67 258.46-8.59 258.83-7.35 259.2-6.1 259.81-5.3 260.42-4.49 261.49-3.96 262.57-3.42 264.03-3.42L264.03-3.42Q265.79-3.42 268.33-3.74 270.87-4.05 272.84-4.39 274.82-4.74 274.92-4.74ZM258.37-15.19L258.37-15.19Q265.01-17.09 269.25-19.19L269.25-19.19Q268.91-20.8 268.33-21.53 267.74-22.27 266.57-22.27L266.57-22.27Q263.59-22.27 261.17-20.21 258.76-18.16 258.37-15.19Z" opacity="1" transform="matrix(1,0,0,1,0,0)" fill="#000000" class="undefined-text-0" data-fill-palette-color="primary" id="text-0"></path></svg></g></svg></g><g transform="matrix(1,0,0,1,0,42.24053410104592)"><svg viewBox="0 0 192 16.577381448454034" height="16.577381448454034" width="192"><g transform="matrix(1,0,0,1,0,0)"><svg width="192" viewBox="0.45 -38.75 599.9499999999999 51.8" height="16.577381448454034" data-palette-color="#842828"><path d="M24.35-26.35Q24.1-27.15 22.43-27.78 20.75-28.4 18.05-28.4L18.05-28.4Q15.1-28.4 13.45-26.75 11.8-25.1 11.8-22.6L11.8-22.6Q11.8-21.05 12.93-20.23 14.05-19.4 16.4-18.4L16.4-18.4 18.2-17.65 19.7-16.95Q22.4-15.75 23.98-14.78 25.55-13.8 26.65-12.1 27.75-10.4 27.75-7.75L27.75-7.75Q27.75-4.9 25.88-2.83 24-0.75 20.65 0.33 17.3 1.4 12.85 1.4L12.85 1.4Q9.55 1.4 6.68 0.38 3.8-0.65 2.13-2.2 0.45-3.75 0.45-5.25L0.45-5.25Q0.45-6.7 1.7-7.63 2.95-8.55 5.25-8.9L5.25-8.9Q5.5-7.45 6.95-6.3 8.4-5.15 10.33-4.48 12.25-3.8 13.7-3.8L13.7-3.8Q16.35-3.8 18.43-4.85 20.5-5.9 20.5-7.75L20.5-7.75Q20.5-9.3 19.03-10.33 17.55-11.35 14.6-12.55L14.6-12.55 11.95-13.75Q8.7-15.35 6.8-17.35 4.9-19.35 4.9-22.65L4.9-22.65Q4.9-26.3 6.95-28.58 9-30.85 11.93-31.85 14.85-32.85 17.65-32.85L17.65-32.85Q22.1-32.85 24.98-31.7 27.85-30.55 29.15-28.8 30.45-27.05 30.45-25.2L30.45-25.2Q30.45-24.15 29.93-22.65 29.4-21.15 28.38-20.05 27.35-18.95 25.9-18.95L25.9-18.95Q23.4-18.95 23.4-21.55L23.4-21.55Q23.5-22.35 23.85-24.18 24.2-26 24.35-26.35L24.35-26.35ZM38.15-29.7Q38.15-31.25 39.13-32.45 40.1-33.65 41.85-33.65L41.85-33.65Q43.7-33.65 45.08-32.5 46.45-31.35 46.45-29.9L46.45-29.9Q46.45-28.45 45.05-27.4 43.65-26.35 41.8-26.35L41.8-26.35Q40-26.35 39.08-27.28 38.15-28.2 38.15-29.7L38.15-29.7ZM43.4-20.85Q40.75-10.05 39.35-4.6L39.35-4.6Q39.15-3.8 39.15-2.85L39.15-2.85 39.2-1.45Q39.2-0.6 38.68-0.25 38.15 0.1 36.45 0.15L36.45 0.15Q34.8 0.15 33.95-0.2 33.1-0.55 33.1-1.7L33.1-1.7Q33.1-2.25 34.38-7.55 35.65-12.85 37.85-21.35L37.85-21.35 36.7-22.85Q36.55-23 36.55-23.2L36.55-23.2Q36.55-23.7 37.65-24.03 38.75-24.35 40.7-24.35L40.7-24.35Q42.4-24.35 42.88-23.38 43.35-22.4 43.4-20.85L43.4-20.85ZM49-22.85Q48.85-23 48.85-23.2L48.85-23.2Q48.85-23.7 49.95-24.03 51.05-24.35 53-24.35L53-24.35Q54.75-24.35 55.35-23.38 55.95-22.4 56.1-20.85L56.1-20.85Q56-20.45 55.9-19.75L55.9-19.75 55.65-18.55Q57.1-20.25 59.95-21.88 62.8-23.5 64.4-23.5L64.4-23.5Q66.9-23.5 67.88-22.63 68.85-21.75 69-19.3L69-19.3Q70.85-21.05 73.25-22.28 75.65-23.5 77.45-23.5L77.45-23.5Q79.35-23.5 80.95-22.73 82.55-21.95 82.55-20.25L82.55-20.25Q82.55-19.8 82.5-19.55L82.5-19.55Q82.35-18.75 81.93-17.32 81.5-15.9 81.3-15.25L81.3-15.25Q80.05-11.2 79.38-8.43 78.7-5.65 78.55-3L78.55-3 79.25-0.55Q78.65 0.6 77.58 1.28 76.5 1.95 74.45 1.95L74.45 1.95Q73.25 1.95 72.7 1.15 72.15 0.35 72.15-0.85L72.15-0.85Q72.15-1.1 72.2-1.4 72.25-1.7 72.25-1.95L72.25-1.95Q72.35-4.75 73.08-7.63 73.8-10.5 74.95-14.1L74.95-14.1Q76-17.25 76-17.95L76-17.95Q76-18.25 75.93-18.57 75.85-18.9 75.75-18.9L75.75-18.9Q74.6-18.9 71.98-17.8 69.35-16.7 68.45-15.6L68.45-15.6Q67.5-12.55 65.3-2.9L65.3-2.9 65-1.5Q64.75-0.2 64.53 0.3 64.3 0.8 63.65 1.05 63 1.3 61.55 1.3L61.55 1.3Q58.1 1.3 58.1-0.1L58.1-0.1Q58.5-1.2 60.3-8.55L60.3-8.55Q61.4-13.1 62.8-18.6L62.8-18.6Q62.5-18.45 61.7-18.15L61.7-18.15Q59.3-17.2 57.53-16.2 55.75-15.2 54.65-13.85L54.65-13.85 53.35-8.55Q53.05-7.35 52.8-6.33 52.55-5.3 52.35-4.6L52.35-4.6Q52.1-3.75 52-2.3L52-2.3Q51.9-1.3 51.73-0.85 51.55-0.4 50.88-0.13 50.2 0.15 48.75 0.15L48.75 0.15Q47.1 0.15 46.25-0.2 45.4-0.55 45.4-1.7L45.4-1.7Q45.4-2.25 46.68-7.55 47.95-12.85 50.15-21.35L50.15-21.35 49-22.85ZM90.15-2.2Q90.1-1.9 88.83 3.28 87.55 8.45 87.05 9.8L87.05 9.8Q86.85 10.35 85.85 10.63 84.85 10.9 84.4 10.9L84.4 10.9Q83.3 10.9 82.58 10.2 81.85 9.5 81.8 8.1L81.8 8.1 85.3-6.25Q87.3-14.1 88.6-19.65L88.6-19.65Q88.6-19.95 88.25-21.25L88.25-21.25Q88.1-22.05 87.95-22.75 87.8-23.45 87.75-23.8L87.75-23.8Q87.85-24.45 88.78-24.85 89.7-25.25 90.5-25.25L90.5-25.25Q91.7-25.25 92.88-24.4 94.05-23.55 94.2-22.35L94.2-22.35 94.05-21.05Q96.3-23.85 99.8-23.85L99.8-23.85Q102.65-23.85 104.73-22.48 106.8-21.1 107.9-18.78 109-16.45 109-13.65L109-13.65Q109-9.9 107.55-6.6 106.1-3.3 103.2-1.28 100.3 0.75 96.2 0.75L96.2 0.75Q94.9 0.75 92.85-0.13 90.8-1 90.15-2.2L90.15-2.2ZM91.7-8.55Q91.6-7.95 91.6-7.7L91.6-7.7Q91.65-6.45 92.43-5.5 93.2-4.55 94.25-4.03 95.3-3.5 96-3.5L96-3.5Q98.2-3.5 99.88-5.18 101.55-6.85 102.45-9.33 103.35-11.8 103.35-14.05L103.35-14.05Q103.35-16.15 102.23-17.78 101.1-19.4 99.4-19.4L99.4-19.4Q97.5-19.4 96.28-18.57 95.05-17.75 93.5-16.05L93.5-16.05 91.7-8.55ZM125.15-35.85L123.05-27.2Q117.4-3.45 116.4-0.05L116.4-0.05Q116.3 0.25 115.38 0.73 114.45 1.2 114.1 1.2L114.1 1.2Q112.7 1.2 111.4 0.5 110.1-0.2 110-1.75L110-1.75Q110.05-1.85 110.5-2.8 110.95-3.75 111.4-5.5L111.4-5.5Q112.55-9.8 114.03-15.7 115.5-21.6 116-23.6L116-23.6 118.35-33.15Q118.3-33.55 118.3-37.3L118.3-37.3Q118.45-37.95 119.43-38.35 120.4-38.75 121.2-38.75L121.2-38.75Q122.45-38.75 123.78-37.9 125.1-37.05 125.15-35.85L125.15-35.85ZM131-29.7Q131-31.25 131.98-32.45 132.95-33.65 134.7-33.65L134.7-33.65Q136.55-33.65 137.93-32.5 139.3-31.35 139.3-29.9L139.3-29.9Q139.3-28.45 137.9-27.4 136.5-26.35 134.65-26.35L134.65-26.35Q132.85-26.35 131.93-27.28 131-28.2 131-29.7L131-29.7ZM136.25-20.85Q133.6-10.05 132.2-4.6L132.2-4.6Q132-3.8 132-2.85L132-2.85 132.05-1.45Q132.05-0.6 131.53-0.25 131 0.1 129.3 0.15L129.3 0.15Q127.65 0.15 126.8-0.2 125.95-0.55 125.95-1.7L125.95-1.7Q125.95-2.25 127.23-7.55 128.5-12.85 130.7-21.35L130.7-21.35 129.55-22.85Q129.4-23 129.4-23.2L129.4-23.2Q129.4-23.7 130.5-24.03 131.6-24.35 133.55-24.35L133.55-24.35Q135.25-24.35 135.73-23.38 136.2-22.4 136.25-20.85L136.25-20.85ZM151.55-16.9L147 1.7Q146.6 2.5 145.73 3.1 144.85 3.7 143.85 3.7L143.85 3.7Q142.95 3.7 142.03 3.03 141.1 2.35 141.1 1.25L141.1 1.25 141.1 0.95 145.35-16.4 140.7-16Q139.15-16 139.15-17.55L139.15-17.55Q139.15-18.8 140.05-20.05L140.05-20.05Q140.2-20.25 146.6-20.95L146.6-20.95 147.5-25.1Q148.7-30.3 151.33-32.98 153.95-35.65 158.75-35.65L158.75-35.65Q161.05-35.65 162.75-34.65 164.45-33.65 165.3-32.1 166.15-30.55 166.15-28.95L166.15-28.95Q166.15-27.7 165.58-26.95 165-26.2 163.2-26.2L163.2-26.2Q162.55-26.2 162.28-26.6 162-27 161.7-27.95L161.7-27.95Q161.35-29.2 160.75-29.9 160.15-30.6 158.65-30.6L158.65-30.6Q156.95-30.6 155.78-29.68 154.6-28.75 154.25-27.45L154.25-27.45 152.7-21.55 155.75-21.85Q157.75-22.05 157.9-22.05L157.9-22.05Q159.8-22.05 159.8-19.85L159.8-19.85Q159.8-19 159.08-18.32 158.35-17.65 157.5-17.5L157.5-17.5 151.55-16.9ZM175.2-2.1Q173.5-0.5 171.9 0.28 170.3 1.05 168.3 1.05L168.3 1.05Q165 1.05 163.23-1 161.45-3.05 161.45-6.45L161.45-6.45Q161.45-7.45 161.75-8.65L161.75-8.65 165.1-21.7Q165.4-22.8 166.18-23.33 166.95-23.85 168.7-23.85L168.7-23.85Q171.3-23.85 171.3-22.4L171.3-22.4Q171.3-21.8 170.95-20.5L170.95-20.5 167.6-7.1Q167.45-6.5 167.45-5.9L167.45-5.9Q167.45-4.85 168-4.2 168.55-3.55 169.75-3.55L169.75-3.55Q171.3-3.55 173.1-4.45 174.9-5.35 176.15-6.65L176.15-6.65 177.1-10.6Q178.05-14.6 179.3-19.25L179.3-19.25Q179.85-21.25 180.73-22.53 181.6-23.8 183.5-23.8L183.5-23.8Q186.15-23.8 186.15-22.2L186.15-22.2Q186.15-21.95 186.03-21.58 185.9-21.2 185.85-20.95L185.85-20.95 184.2-14.1Q181.6-3.2 180.8-0.15L180.8-0.15Q179.5 4.85 177.85 7.7 176.2 10.55 173.73 11.8 171.25 13.05 167.4 13.05L167.4 13.05Q164.95 13.05 163.38 12.35 161.8 11.65 161.08 10.65 160.35 9.65 160.35 8.8L160.35 8.8Q160.35 6.35 163.05 6.35L163.05 6.35Q163.8 6.35 164.28 6.65 164.75 6.95 165.25 7.5L165.25 7.5Q166 8.2 166.63 8.55 167.25 8.9 168.35 8.9L168.35 8.9Q169.2 8.9 170.25 8.2 171.3 7.5 172.3 6 173.3 4.5 173.95 2.25L173.95 2.25 175.2-2.1ZM192.9-29.7Q192.9-31.25 193.88-32.45 194.85-33.65 196.6-33.65L196.6-33.65Q198.45-33.65 199.83-32.5 201.2-31.35 201.2-29.9L201.2-29.9Q201.2-28.45 199.8-27.4 198.4-26.35 196.55-26.35L196.55-26.35Q194.75-26.35 193.83-27.28 192.9-28.2 192.9-29.7L192.9-29.7ZM198.15-20.85Q195.5-10.05 194.1-4.6L194.1-4.6Q193.9-3.8 193.9-2.85L193.9-2.85 193.95-1.45Q193.95-0.6 193.43-0.25 192.9 0.1 191.2 0.15L191.2 0.15Q189.55 0.15 188.7-0.2 187.85-0.55 187.85-1.7L187.85-1.7Q187.85-2.25 189.13-7.55 190.4-12.85 192.6-21.35L192.6-21.35 191.45-22.85Q191.3-23 191.3-23.2L191.3-23.2Q191.3-23.7 192.4-24.03 193.5-24.35 195.45-24.35L195.45-24.35Q197.15-24.35 197.63-23.38 198.1-22.4 198.15-20.85L198.15-20.85ZM204.1-22.85Q203.95-23 203.95-23.2L203.95-23.2Q203.95-23.7 205.05-24.03 206.15-24.35 208.1-24.35L208.1-24.35Q209.9-24.35 210.75-23.43 211.6-22.5 211.75-21.2L211.75-21.2 210.85-17.95Q211.9-19.4 213.8-20.73 215.7-22.05 217.65-22.85 219.6-23.65 220.85-23.65L220.85-23.65Q223.5-23.65 224.7-22.68 225.9-21.7 225.9-19.6L225.9-19.6Q222.95-11.9 222-3L222-3 222.7-0.55Q222.1 0.6 221.03 1.28 219.95 1.95 217.9 1.95L217.9 1.95Q216.7 1.95 216.15 1.15 215.6 0.35 215.6-0.85L215.6-0.85Q215.6-4.2 216.58-8.22 217.55-12.25 218.85-16.45L218.85-16.45Q219.35-18.05 219.35-18.1L219.35-18.1Q219.35-18.8 218.55-18.8L218.55-18.8Q217.45-18.8 215.23-17.25 213-15.7 210.65-12.03 208.3-8.35 206.85-2.4L206.85-2.4Q206.75-2.1 206.6-1.3 206.45-0.5 205.8-0.18 205.15 0.15 203.7 0.15L203.7 0.15Q202.05 0.15 201.28-0.2 200.5-0.55 200.5-1.7L200.5-1.7Q200.65-2.4 200.95-3.4L200.95-3.4Q203.85-15.05 205.4-21.35L205.4-21.35 204.1-22.85ZM233.35 11.35Q231.05 11.35 229.03 10.35 227 9.35 225.63 7.78 224.25 6.2 223.65 4.6L223.65 4.6Q223.7 3.7 224.53 2.83 225.35 1.95 227.4 1.95L227.4 1.95Q228.05 1.95 228.53 2.45 229 2.95 229.6 4.05L229.6 4.05Q230.4 5.55 231.28 6.38 232.15 7.2 233.7 7.2L233.7 7.2Q235.45 7.2 237.08 5.83 238.7 4.45 239.88 2.1 241.05-0.25 241.5-3.1L241.5-3.1Q240.4-1.6 238.98-0.8 237.55 0 236.3 0L236.3 0Q232.3 0 229.98-1.78 227.65-3.55 227.65-8.1L227.65-8.1Q227.65-12.2 229.93-15.75 232.2-19.3 236-21.4 239.8-23.5 244.15-23.5L244.15-23.5Q247-23.5 248.38-22.35 249.75-21.2 250.05-19.45L250.05-19.45Q250.9-19.05 250.95-18.65L250.95-18.65Q250.95-18.5 250.75-17.6L250.75-17.6Q249.8-13.5 246.75-1.4L246.75-1.4 246.2 0.8Q244.95 5.65 241.43 8.5 237.9 11.35 233.35 11.35L233.35 11.35ZM244.65-18.35Q244.25-19.05 243.88-19.25 243.5-19.45 242.75-19.45L242.75-19.45Q240.4-19.45 238.2-17.93 236-16.4 234.65-13.98 233.3-11.55 233.3-9L233.3-9Q233.3-7.15 233.98-5.8 234.65-4.45 236.15-4.25L236.15-4.25Q238.15-4.6 239.93-6.05 241.7-7.5 242.35-9.8L242.35-9.8 244.65-18.35ZM276.65-18.1L273.5-5.5Q273.5-4.35 274.1-3.68 274.7-3 275.8-3L275.8-3Q277.3-3 278.28-3.88 279.25-4.75 280.35-6.35L280.35-6.35Q281.15-7.5 281.65-8 282.15-8.5 282.8-8.5L282.8-8.5Q284.1-8.5 284.65-8.18 285.2-7.85 285.2-6.85L285.2-6.85Q285.2-6.4 285.1-5.78 285-5.15 284.85-4.85L284.85-4.85Q283.65-2.3 280.93-0.45 278.2 1.4 274.75 1.4L274.75 1.4Q271.3 1.4 269.55-0.28 267.8-1.95 267.8-5.05L267.8-5.05Q267.8-5.5 268.25-7.4 268.7-9.3 269.4-11.95L269.4-11.95 270.8-17.65 267.75-17.4Q267.15-17.4 266.85-17.85 266.55-18.3 266.55-18.95L266.55-18.95Q266.55-20.2 267.45-21.45L267.45-21.45Q267.55-21.6 268.45-21.75 269.35-21.9 270.65-22.05L270.65-22.05 272-22.2 273.7-29.5Q274.2-30.8 275.23-31.53 276.25-32.25 277.15-32.25L277.15-32.25Q278.15-32.25 278.85-31.65 279.55-31.05 279.6-30.25L279.6-30.25 277.8-22.75Q279.75-23 281.43-23.18 283.1-23.35 284.05-23.35L284.05-23.35Q285.95-23.35 285.95-21.15L285.95-21.15Q285.95-20.3 285.23-19.63 284.5-18.95 283.65-18.8L283.65-18.8 276.65-18.1ZM295.65-16.5Q296.8-18.75 298.83-20.35 300.85-21.95 302.95-22.8 305.05-23.65 306.4-23.65L306.4-23.65Q309-23.65 310.15-22.68 311.3-21.7 311.3-19.6L311.3-19.6Q308.35-11.9 307.4-3L307.4-3 308.1-0.55Q307.5 0.6 306.5 1.28 305.5 1.95 303.45 1.95L303.45 1.95Q302.25 1.95 301.7 1.15 301.15 0.35 301.15-0.85L301.15-0.85Q301.15-4.2 302.13-8.22 303.1-12.25 304.4-16.45L304.4-16.45Q304.9-18.05 304.9-18.1L304.9-18.1Q304.9-18.8 304.1-18.8L304.1-18.8Q303.05-18.8 301.05-17.25 299.05-15.7 296.9-12.03 294.75-8.35 293.3-2.4L293.3-2.4Q293.25-2.15 293.05-1.35 292.85-0.55 292.15-0.2 291.45 0.15 290 0.15L290 0.15Q288.25 0.15 287.3-0.23 286.35-0.6 286.35-1.7L286.35-1.7Q292.9-27.45 294.45-33.9L294.45-33.9Q294.4-34.55 294.38-35.63 294.35-36.7 294.35-37.3L294.35-37.3Q294.5-38 295.43-38.38 296.35-38.75 297.3-38.75L297.3-38.75Q298.9-38.75 300-37.9 301.1-37.05 301.2-35.75L301.2-35.75 295.65-16.5ZM323.3 1.05Q318.4 1.05 316.15-0.9 313.9-2.85 313.9-6.1L313.9-6.1Q313.9-10.85 316.28-14.9 318.65-18.95 322.63-21.33 326.6-23.7 331.2-23.7L331.2-23.7Q334-23.7 335.9-22.13 337.8-20.55 337.8-17.5L337.8-17.5Q337.8-15.75 336.68-14.63 335.55-13.5 333.45-12.63 331.35-11.75 326.65-10.15L326.65-10.15Q322.4-8.75 319.75-7.8L319.75-7.8Q319.55-7.05 319.55-6.25L319.55-6.25Q319.55-4.85 320.73-4.1 321.9-3.35 324.05-3.35L324.05-3.35Q325.4-3.35 327.15-3.9 328.9-4.45 329.35-5.3L329.35-5.3Q331.05-8.4 332.45-8.4L332.45-8.4Q334.5-8.4 335.23-7.63 335.95-6.85 336-5.9L336-5.9Q335.4-4.3 333.65-2.68 331.9-1.05 329.2 0 326.5 1.05 323.3 1.05L323.3 1.05ZM321.15-12.4Q326.1-14 329.3-15.38 332.5-16.75 332.5-18.1L332.5-18.1Q332.5-18.7 331.85-19.07 331.2-19.45 330.45-19.45L330.45-19.45Q328.95-19.45 327.03-18.3 325.1-17.15 323.45-15.5 321.8-13.85 321.15-12.4L321.15-12.4ZM380.35-8.7Q379.6-6.45 377.38-4.17 375.15-1.9 371.78-0.43 368.4 1.05 364.4 1.05L364.4 1.05Q358.3 1.05 355.45-1.93 352.6-4.9 352.6-9.55L352.6-9.55Q352.6-16.15 355.55-21.53 358.5-26.9 363.5-29.98 368.5-33.05 374.3-33.05L374.3-33.05Q376.6-33.05 378.5-32 380.4-30.95 381.5-28.98 382.6-27 382.6-24.35L382.6-24.35Q382.6-22.85 381.48-21.8 380.35-20.75 378.45-20.75L378.45-20.75Q376.95-20.75 376.43-21.55 375.9-22.35 375.9-23.6L375.9-23.6 375.95-25.2Q375.95-26.1 374.95-26.95 373.95-27.8 373.1-27.8L373.1-27.8Q370.3-27.8 366.95-25.28 363.6-22.75 361.3-18.48 359-14.2 359-9.2L359-9.2Q359-6.9 360.8-5.45 362.6-4 365.35-4L365.35-4Q366.25-4 367.7-4.6 369.15-5.2 370.38-6.1 371.6-7 372-7.85L372-7.85Q372.6-9.1 373.7-10.65 374.8-12.2 375.9-12.2L375.9-12.2Q378.45-12.2 379.38-11.1 380.3-10 380.35-8.7L380.35-8.7ZM393.7 1.05Q389.3 1.05 386.85-1.95 384.4-4.95 384.4-9.6L384.4-9.6Q384.4-13.5 386.28-16.95 388.15-20.4 391.4-22.5 394.65-24.6 398.55-24.6L398.55-24.6Q402.4-24.6 404.88-22.08 407.35-19.55 407.35-14.65L407.35-14.65Q407.35-11.2 405.45-7.5 403.55-3.8 400.38-1.38 397.2 1.05 393.7 1.05L393.7 1.05ZM394.45-2.95Q396.05-2.95 397.68-4.95 399.3-6.95 400.35-10 401.4-13.05 401.4-15.95L401.4-15.95Q401.4-20.4 397.7-20.4L397.7-20.4Q395.65-20.4 393.95-18.45 392.25-16.5 391.25-13.63 390.25-10.75 390.25-8.25L390.25-8.25Q390.25-6.8 390.9-5.58 391.55-4.35 392.53-3.65 393.5-2.95 394.45-2.95L394.45-2.95ZM412.3-22.85Q412.15-23 412.15-23.2L412.15-23.2Q412.15-23.7 413.25-24.03 414.35-24.35 416.3-24.35L416.3-24.35Q418.05-24.35 418.65-23.38 419.25-22.4 419.4-20.85L419.4-20.85Q419.3-20.45 419.2-19.75L419.2-19.75 418.95-18.55Q420.4-20.25 423.25-21.88 426.1-23.5 427.7-23.5L427.7-23.5Q430.2-23.5 431.18-22.63 432.15-21.75 432.3-19.3L432.3-19.3Q434.15-21.05 436.55-22.28 438.95-23.5 440.75-23.5L440.75-23.5Q442.65-23.5 444.25-22.73 445.85-21.95 445.85-20.25L445.85-20.25Q445.85-19.8 445.8-19.55L445.8-19.55Q445.65-18.75 445.23-17.32 444.8-15.9 444.6-15.25L444.6-15.25Q443.35-11.2 442.68-8.43 442-5.65 441.85-3L441.85-3 442.55-0.55Q441.95 0.6 440.88 1.28 439.8 1.95 437.75 1.95L437.75 1.95Q436.55 1.95 436 1.15 435.45 0.35 435.45-0.85L435.45-0.85Q435.45-1.1 435.5-1.4 435.55-1.7 435.55-1.95L435.55-1.95Q435.65-4.75 436.38-7.63 437.1-10.5 438.25-14.1L438.25-14.1Q439.3-17.25 439.3-17.95L439.3-17.95Q439.3-18.25 439.23-18.57 439.15-18.9 439.05-18.9L439.05-18.9Q437.9-18.9 435.27-17.8 432.65-16.7 431.75-15.6L431.75-15.6Q430.8-12.55 428.6-2.9L428.6-2.9 428.3-1.5Q428.05-0.2 427.82 0.3 427.6 0.8 426.95 1.05 426.3 1.3 424.85 1.3L424.85 1.3Q421.4 1.3 421.4-0.1L421.4-0.1Q421.8-1.2 423.6-8.55L423.6-8.55Q424.7-13.1 426.1-18.6L426.1-18.6Q425.8-18.45 425-18.15L425-18.15Q422.6-17.2 420.82-16.2 419.05-15.2 417.95-13.85L417.95-13.85 416.65-8.55Q416.35-7.35 416.1-6.33 415.85-5.3 415.65-4.6L415.65-4.6Q415.4-3.75 415.3-2.3L415.3-2.3Q415.2-1.3 415.02-0.85 414.85-0.4 414.18-0.13 413.5 0.15 412.05 0.15L412.05 0.15Q410.4 0.15 409.55-0.2 408.7-0.55 408.7-1.7L408.7-1.7Q408.7-2.25 409.98-7.55 411.25-12.85 413.45-21.35L413.45-21.35 412.3-22.85ZM453.45-2.2Q453.4-1.9 452.13 3.28 450.85 8.45 450.35 9.8L450.35 9.8Q450.15 10.35 449.15 10.63 448.15 10.9 447.7 10.9L447.7 10.9Q446.6 10.9 445.88 10.2 445.15 9.5 445.1 8.1L445.1 8.1 448.6-6.25Q450.6-14.1 451.9-19.65L451.9-19.65Q451.9-19.95 451.55-21.25L451.55-21.25Q451.4-22.05 451.25-22.75 451.1-23.45 451.05-23.8L451.05-23.8Q451.15-24.45 452.07-24.85 453-25.25 453.8-25.25L453.8-25.25Q455-25.25 456.17-24.4 457.35-23.55 457.5-22.35L457.5-22.35 457.35-21.05Q459.6-23.85 463.1-23.85L463.1-23.85Q465.95-23.85 468.02-22.48 470.1-21.1 471.2-18.78 472.3-16.45 472.3-13.65L472.3-13.65Q472.3-9.9 470.85-6.6 469.4-3.3 466.5-1.28 463.6 0.75 459.5 0.75L459.5 0.75Q458.2 0.75 456.15-0.13 454.1-1 453.45-2.2L453.45-2.2ZM455-8.55Q454.9-7.95 454.9-7.7L454.9-7.7Q454.95-6.45 455.72-5.5 456.5-4.55 457.55-4.03 458.6-3.5 459.3-3.5L459.3-3.5Q461.5-3.5 463.17-5.18 464.85-6.85 465.75-9.33 466.65-11.8 466.65-14.05L466.65-14.05Q466.65-16.15 465.52-17.78 464.4-19.4 462.7-19.4L462.7-19.4Q460.8-19.4 459.57-18.57 458.35-17.75 456.8-16.05L456.8-16.05 455-8.55ZM488.45-35.85L486.35-27.2Q480.7-3.45 479.7-0.05L479.7-0.05Q479.6 0.25 478.67 0.73 477.75 1.2 477.4 1.2L477.4 1.2Q476 1.2 474.7 0.5 473.4-0.2 473.3-1.75L473.3-1.75Q473.35-1.85 473.8-2.8 474.25-3.75 474.7-5.5L474.7-5.5Q475.85-9.8 477.32-15.7 478.8-21.6 479.3-23.6L479.3-23.6 481.65-33.15Q481.6-33.55 481.6-37.3L481.6-37.3Q481.75-37.95 482.72-38.35 483.7-38.75 484.5-38.75L484.5-38.75Q485.75-38.75 487.07-37.9 488.4-37.05 488.45-35.85L488.45-35.85ZM497.65 1.05Q492.75 1.05 490.5-0.9 488.25-2.85 488.25-6.1L488.25-6.1Q488.25-10.85 490.62-14.9 493-18.95 496.97-21.33 500.95-23.7 505.55-23.7L505.55-23.7Q508.35-23.7 510.25-22.13 512.15-20.55 512.15-17.5L512.15-17.5Q512.15-15.75 511.02-14.63 509.9-13.5 507.8-12.63 505.7-11.75 501-10.15L501-10.15Q496.75-8.75 494.1-7.8L494.1-7.8Q493.9-7.05 493.9-6.25L493.9-6.25Q493.9-4.85 495.07-4.1 496.25-3.35 498.4-3.35L498.4-3.35Q499.75-3.35 501.5-3.9 503.25-4.45 503.7-5.3L503.7-5.3Q505.4-8.4 506.8-8.4L506.8-8.4Q508.85-8.4 509.57-7.63 510.3-6.85 510.35-5.9L510.35-5.9Q509.75-4.3 508-2.68 506.25-1.05 503.55 0 500.85 1.05 497.65 1.05L497.65 1.05ZM495.5-12.4Q500.45-14 503.65-15.38 506.85-16.75 506.85-18.1L506.85-18.1Q506.85-18.7 506.2-19.07 505.55-19.45 504.8-19.45L504.8-19.45Q503.3-19.45 501.37-18.3 499.45-17.15 497.8-15.5 496.15-13.85 495.5-12.4L495.5-12.4ZM535.8-24.5Q537.4-24.5 537.85-23.75 538.3-23 538.3-21.9L538.3-21.9Q538.3-21.15 538.1-20.88 537.9-20.6 537.3-20.25L537.3-20.25Q536.4-19.65 535.65-19.05L535.65-19.05Q534.65-18.15 528.7-11.45L528.7-11.45Q530.95-7.4 532.95-4.15L532.95-4.15Q533.9-2.65 533.9-1.4L533.9-1.4Q533.9-0.7 533.15-0.15L533.15-0.15Q532.55 0.3 531.45 0.3L531.45 0.3Q530.35 0.3 528.6-1.75L528.6-1.75Q527.1-3.6 524.9-7.2L524.9-7.2Q519-0.55 517.65 0.4L517.65 0.4Q516.8 1 515.7 1L515.7 1Q515.05 1 514.25 0.23 513.45-0.55 513.45-1.25L513.45-1.25Q513.45-1.7 513.5-1.95L513.5-1.95 514.5-2.85Q515.4-3.65 522.45-11.55L522.45-11.55Q520.85-14.65 519.85-17.32 518.85-20 518.85-21.6L518.85-21.6Q518.85-23.05 519.75-23.55 520.65-24.05 522.4-24.05L522.4-24.05Q523.25-24.05 524.1-23.63 524.95-23.2 524.95-22.5L524.95-22.5 524.9-21.75Q524.9-19.6 526.4-16.15L526.4-16.15Q529.85-20.2 532.23-22.35 534.6-24.5 535.8-24.5L535.8-24.5ZM545.55-29.7Q545.55-31.25 546.52-32.45 547.5-33.65 549.25-33.65L549.25-33.65Q551.1-33.65 552.47-32.5 553.85-31.35 553.85-29.9L553.85-29.9Q553.85-28.45 552.45-27.4 551.05-26.35 549.2-26.35L549.2-26.35Q547.4-26.35 546.47-27.28 545.55-28.2 545.55-29.7L545.55-29.7ZM550.8-20.85Q548.15-10.05 546.75-4.6L546.75-4.6Q546.55-3.8 546.55-2.85L546.55-2.85 546.6-1.45Q546.6-0.6 546.07-0.25 545.55 0.1 543.85 0.15L543.85 0.15Q542.2 0.15 541.35-0.2 540.5-0.55 540.5-1.7L540.5-1.7Q540.5-2.25 541.77-7.55 543.05-12.85 545.25-21.35L545.25-21.35 544.1-22.85Q543.95-23 543.95-23.2L543.95-23.2Q543.95-23.7 545.05-24.03 546.15-24.35 548.1-24.35L548.1-24.35Q549.8-24.35 550.27-23.38 550.75-22.4 550.8-20.85L550.8-20.85ZM564.1-18.1L560.95-5.5Q560.95-4.35 561.55-3.68 562.15-3 563.25-3L563.25-3Q564.75-3 565.72-3.88 566.7-4.75 567.8-6.35L567.8-6.35Q568.6-7.5 569.1-8 569.6-8.5 570.25-8.5L570.25-8.5Q571.55-8.5 572.1-8.18 572.65-7.85 572.65-6.85L572.65-6.85Q572.65-6.4 572.55-5.78 572.45-5.15 572.3-4.85L572.3-4.85Q571.1-2.3 568.37-0.45 565.65 1.4 562.2 1.4L562.2 1.4Q558.75 1.4 557-0.28 555.25-1.95 555.25-5.05L555.25-5.05Q555.25-5.5 555.7-7.4 556.15-9.3 556.85-11.95L556.85-11.95 558.25-17.65 555.2-17.4Q554.6-17.4 554.3-17.85 554-18.3 554-18.95L554-18.95Q554-20.2 554.9-21.45L554.9-21.45Q555-21.6 555.9-21.75 556.8-21.9 558.1-22.05L558.1-22.05 559.45-22.2 561.15-29.5Q561.65-30.8 562.67-31.53 563.7-32.25 564.6-32.25L564.6-32.25Q565.6-32.25 566.3-31.65 567-31.05 567.05-30.25L567.05-30.25 565.25-22.75Q567.2-23 568.87-23.18 570.55-23.35 571.5-23.35L571.5-23.35Q573.4-23.35 573.4-21.15L573.4-21.15Q573.4-20.3 572.67-19.63 571.95-18.95 571.1-18.8L571.1-18.8 564.1-18.1ZM589.45-2.1Q587.75-0.5 586.15 0.28 584.55 1.05 582.55 1.05L582.55 1.05Q579.25 1.05 577.47-1 575.7-3.05 575.7-6.45L575.7-6.45Q575.7-7.45 576-8.65L576-8.65 579.35-21.7Q579.65-22.8 580.42-23.33 581.2-23.85 582.95-23.85L582.95-23.85Q585.55-23.85 585.55-22.4L585.55-22.4Q585.55-21.8 585.2-20.5L585.2-20.5 581.85-7.1Q581.7-6.5 581.7-5.9L581.7-5.9Q581.7-4.85 582.25-4.2 582.8-3.55 584-3.55L584-3.55Q585.55-3.55 587.35-4.45 589.15-5.35 590.4-6.65L590.4-6.65 591.35-10.6Q592.3-14.6 593.55-19.25L593.55-19.25Q594.1-21.25 594.97-22.53 595.85-23.8 597.75-23.8L597.75-23.8Q600.4-23.8 600.4-22.2L600.4-22.2Q600.4-21.95 600.27-21.58 600.15-21.2 600.1-20.95L600.1-20.95 598.45-14.1Q595.85-3.2 595.05-0.15L595.05-0.15Q593.75 4.85 592.1 7.7 590.45 10.55 587.97 11.8 585.5 13.05 581.65 13.05L581.65 13.05Q579.2 13.05 577.62 12.35 576.05 11.65 575.32 10.65 574.6 9.65 574.6 8.8L574.6 8.8Q574.6 6.35 577.3 6.35L577.3 6.35Q578.05 6.35 578.52 6.65 579 6.95 579.5 7.5L579.5 7.5Q580.25 8.2 580.87 8.55 581.5 8.9 582.6 8.9L582.6 8.9Q583.45 8.9 584.5 8.2 585.55 7.5 586.55 6 587.55 4.5 588.2 2.25L588.2 2.25 589.45-2.1Z" opacity="1" transform="matrix(1,0,0,1,0,0)" fill="#842828" class="undefined-text-1" data-fill-palette-color="secondary" id="text-1"></path></svg></g></svg></g></svg></g></svg></g><g transform="matrix(1,0,0,1,55.35682035529553,0)"><svg viewBox="0 0 81.28635928940894 81.28635928940894" height="81.28635928940894" width="81.28635928940894"><g><svg xmlns="http://www.w3.org/2000/svg" xmlns:xlink="http://www.w3.org/1999/xlink" version="1.1" x="0" y="0" viewBox="0 0 100 100" enable-background="new 0 0 100 100" xml:space="preserve" height="81.28635928940894" width="81.28635928940894" class="icon-icon-0" data-fill-palette-color="accent" id="icon-0"><g fill="#000000" data-fill-palette-color="accent"><g fill="#000000" data-fill-palette-color="accent"><path fill="#000000" d="M57.066 39.532c0.327-0.372 0.211-0.805-0.257-0.965l-6.35-2.139c-0.463-0.171-0.945 0.079-1.071 0.557l-0.319 1.21c-0.126 0.479 0.155 0.997 0.624 1.152l2.021 0.638c0.469 0.152 0.584 0.574 0.253 0.943l-1.462 1.628c-0.331 0.366-0.317 0.95 0.035 1.298l0.813 0.812c0.351 0.349 0.905 0.328 1.23-0.043L57.066 39.532z" data-fill-palette-color="accent"></path><path fill="#000000" d="M35.111 49.171c0.238-0.434 0.761-0.554 1.163-0.266 0 0 0.449 0.32 0.852 0.605 0.401 0.286 0.535 0.876 0.298 1.309l-0.711 1.304c-0.237 0.435-0.794 0.626-1.234 0.429-0.443-0.2-1.582-1.154-1.347-1.586L35.111 49.171z" data-fill-palette-color="accent"></path><path fill="#000000" d="M15.526 73.361c-0.457-0.19-0.638-0.701-0.402-1.136l0.979-1.804c0.235-0.434 0.763-0.562 1.17-0.285l0.864 0.587c0.407 0.279 0.548 0.862 0.312 1.297l-0.706 1.293c-0.236 0.434-0.784 0.642-1.218 0.461C16.092 73.595 15.526 73.361 15.526 73.361" data-fill-palette-color="accent"></path><path fill="#000000" d="M34.51 55.192c0.476 0.136 0.781 0.643 0.679 1.125l-0.316 1.492c-0.103 0.484-0.577 0.832-1.058 0.775-0.479-0.057-1.82-0.62-1.725-1.105l0.378-1.943c0.096-0.486 0.562-0.771 1.037-0.633L34.51 55.192z" data-fill-palette-color="accent"></path><path fill="#000000" d="M20.869 65.393c0.386-0.306 0.917-0.214 1.177 0.207l0.556 0.895c0.263 0.421 0.156 1.013-0.231 1.321l-1.112 0.877c-0.389 0.307-0.988 0.267-1.333-0.088l-0.73-0.75c-0.344-0.354-0.31-0.894 0.077-1.199L20.869 65.393z" data-fill-palette-color="accent"></path><path fill="#000000" d="M43.558 42.912c-0.211-0.446-0.006-0.954 0.457-1.126l1.817-0.678c0.462-0.172 0.949 0.076 1.084 0.553l0.276 0.992c0.134 0.477-0.136 1.009-0.597 1.186l-1.364 0.518c-0.463 0.175-1.009-0.04-1.217-0.477C43.807 43.442 43.558 42.912 43.558 42.912" data-fill-palette-color="accent"></path><path fill="#000000" d="M15.614 76.432c0.481 0.116 0.812 0.612 0.736 1.099l-0.232 1.504c-0.077 0.487-0.534 0.858-1.016 0.823-0.481-0.037-1.845-0.542-1.77-1.031l0.293-1.954c0.072-0.489 0.525-0.793 1.006-0.677L15.614 76.432z" data-fill-palette-color="accent"></path><path fill="#000000" d="M32.104 64.286c-0.492 0.039-0.966-0.309-1.049-0.771-0.087-0.463 0.053-1.934 0.546-1.97l1.952-0.136c0.494-0.035 0.932 0.34 0.976 0.83 0 0 0.044 0.49 0.087 0.971 0.042 0.479-0.327 0.903-0.818 0.943L32.104 64.286z" data-fill-palette-color="accent"></path><path fill="#000000" d="M14.473 86.349c-0.459 0.109-0.894-0.201-0.96-0.69l-0.269-1.961c-0.067-0.492 0.282-0.913 0.774-0.942l1.034-0.055c0.493-0.028 0.928 0.354 0.969 0.845l0.122 1.498C16.184 85.534 14.936 86.239 14.473 86.349" data-fill-palette-color="accent"></path><path fill="#000000" d="M26.275 65.737c-0.467 0.164-1.006-0.075-1.197-0.531l-0.4-0.945c-0.193-0.455 0.031-0.962 0.499-1.126l1.78-0.628c0.465-0.164 0.951 0.092 1.08 0.568l0.268 1.006c0.128 0.476-0.147 1-0.615 1.161L26.275 65.737z" data-fill-palette-color="accent"></path><path fill="#000000" d="M41.561 45.193c0.278 0.409 0.193 1.002-0.186 1.316l-1.107 0.919c-0.38 0.318-0.972 0.302-1.313-0.031-0.342-0.334-1.092-1.628-0.717-1.948l1.535-1.302c0.376-0.32 0.911-0.246 1.188 0.163L41.561 45.193z" data-fill-palette-color="accent"></path><path fill="#000000" d="M28.693 91.086c0-4.475-0.002-8.79 0-13.105 0-1.961 0.627-2.578 2.619-2.578 3.917-0.001 7.836-0.001 11.757-0.001h1.308v-1.235c0-4.029-0.004-8.058 0.002-12.085 0.002-1.671 0.703-2.357 2.397-2.36 3.993-0.005 7.983-0.001 11.976-0.001h1.309v-1.237c0-4.027-0.006-8.056 0.003-12.083 0.003-1.673 0.702-2.362 2.396-2.363 4.898-0.004 17.131-0.003 22.03 0 1.587 0 2.484 0.699 2.498 1.934 0.017 1.234-0.897 1.976-2.453 1.977-4.354 0.003-16.039 0.002-20.561 0.002v1.184c0 4.028 0.003 8.056-0.002 12.084-0.002 1.738-0.689 2.413-2.455 2.414-4.353 0.004-8.704 0.002-13.229 0.002v1.184c0 4.027 0.003 8.056-0.001 12.084-0.001 1.738-0.688 2.413-2.452 2.414-4.354 0.004-8.706 0.002-13.231 0.002v1.184c0 4.027 0.006 8.055 0 12.083-0.003 1.739-0.688 2.415-2.452 2.417-4.86 0.002-9.724 0.001-14.588 0-1.652 0-2.572-0.719-2.553-1.987 0.019-1.229 0.917-1.924 2.508-1.924 3.953-0.003 7.911-0.002 11.866-0.002H28.693z" data-fill-palette-color="accent"></path><path fill="#000000" d="M72.418 22.164c0 6.147 0 12.296 0 18.44 0 0.95-0.242 1.197-1.183 1.197-1.201 0.002-2.4 0.006-3.602 0-0.794-0.004-1.081-0.292-1.081-1.09-0.002-12.349-0.002-22.328 0-34.676 0-0.773 0.271-1.035 1.055-1.036 1.236 0 2.473 0 3.71 0 0.865 0.001 1.101 0.232 1.101 1.092C72.418 12.239 72.418 16.019 72.418 22.164" data-fill-palette-color="accent"></path><path fill="#000000" d="M65.826 24.948c0 5.202 0 10.403 0 15.606 0 1.032-0.215 1.249-1.24 1.249-1.184 0-2.363 0.004-3.547-0.002-0.784-0.004-1.05-0.271-1.05-1.047 0-10.51 0-18.656 0-29.168 0-0.746 0.269-1.016 1.016-1.018 1.2-0.004 2.4-0.002 3.601-0.001 1.021 0 1.219 0.191 1.221 1.198C65.826 16.95 65.826 19.767 65.826 24.948" data-fill-palette-color="accent"></path><path fill="#000000" d="M86.496 39.972c-0.187 0.181-0.377 0.512-0.648 0.602-1.322 0.443-2.663 0.831-4.004 1.215-0.575 0.165-0.903-0.092-1.114-0.8-0.896-2.983-1.788-5.968-2.68-8.952-1.696-5.674-3.391-11.349-5.085-17.023-0.238-0.807-0.079-1.109 0.701-1.346 1.194-0.361 2.392-0.722 3.589-1.075 0.724-0.214 1.074-0.013 1.296 0.728 2.589 8.658 5.178 17.318 7.768 25.977C86.367 39.468 86.41 39.644 86.496 39.972" data-fill-palette-color="accent"></path></g></g></svg></g></svg></g><g></g></svg></g></svg></g></svg></g></svg></g><defs></defs></svg><rect width="320" height="360" fill="none" stroke="none" visibility="hidden"></rect></g></svg></g></svg>